<svg id="Calque_1" data-name="Calque 1" xmlns="http://www.w3.org/2000/svg" viewBox="0 0 283.46 283.46"><defs><style>.cls-1{fill:#00151d;}.cls-2{fill:#fff;}.cls-3{fill:#fdeb1b;}.cls-4{fill:#e8471e;}.cls-5{fill:#652581;}.cls-6{fill:#5dc5f1;}.cls-7{fill:#009dd9;}.cls-8{fill:#e5067e;}.cls-9{fill:#afca12;}.cls-10{fill:#69b42f;}.cls-11{fill:#2a2e6f;}</style></defs><title>Plan de travail 1</title><path class="cls-1" d="M176.45,263.65A126.77,126.77,0,1,1,263.65,107a126.76,126.76,0,0,1-87.2,156.64"/><polygon class="cls-2" points="202.93 203.93 174.88 203.93 174.88 132.9 143.39 184.85 140.17 184.85 108.68 132.9 108.68 203.93 80.64 203.93 80.64 81.87 108.68 81.87 141.78 136.12 174.88 81.87 202.93 81.87 202.93 203.93"/><path class="cls-3" d="M258.93,62,246,70.76a124.92,124.92,0,0,1,11.73,21.77l14.54-6.08A141,141,0,0,0,258.93,62"/><path class="cls-4" d="M258.93,62a142.34,142.34,0,0,0-50.66-45.44L201,30.2a125.79,125.79,0,0,1,45,40.56Z"/><path class="cls-3" d="M141.73,0A142.08,142.08,0,0,0,110.3,3.54l3.41,15A125.31,125.31,0,0,1,201,30.2l7.28-13.61A141,141,0,0,0,141.73,0"/><path class="cls-5" d="M248.68,234.67a141.6,141.6,0,0,0,24.88-40.92l-15-6A126.65,126.65,0,0,1,236,224.38Z"/><path class="cls-6" d="M5.62,181.22a141.21,141.21,0,0,0,23.05,46l12.95-9.86a125.35,125.35,0,0,1-20.53-40.66Z"/><path class="cls-7" d="M0,141.73a141.42,141.42,0,0,0,5.62,39.49l15.47-4.56c-.11-.36-.22-.71-.32-1.07a125.77,125.77,0,0,1,86.5-155.42c2.15-.61,4.29-1.16,6.44-1.66l-3.41-15A141.76,141.76,0,0,0,0,141.73"/><path class="cls-8" d="M272.27,86.45l-14.54,6.08a125.75,125.75,0,0,1,.81,95.22l15,6a141.89,141.89,0,0,0-1.29-107.3"/><path class="cls-9" d="M41.62,217.32l-12.95,9.86a141.82,141.82,0,0,0,17,18.69l11-12.07a125.52,125.52,0,0,1-15.06-16.48"/><path class="cls-10" d="M45.63,245.87a141.17,141.17,0,0,0,96,37.59V266.93a126,126,0,0,1-85-33.13Z"/><path class="cls-11" d="M176.18,262.09a125.56,125.56,0,0,1-34.53,4.84v16.53h.08a141.34,141.34,0,0,0,107-48.79L236,224.38a125.19,125.19,0,0,1-59.84,37.71"/></svg>