<svg version="1.1" id="Calque_1" xmlns="http://www.w3.org/2000/svg" xmlns:xlink="http://www.w3.org/1999/xlink" x="0px" y="0px" viewBox="0 0 424 424" style="enable-background:new 0 0 424 424;" xml:space="preserve">
<style type="text/css">
.st0 {
fill: #56267D;
}

.st1 {
fill: #84C3EA;
}

.st2 {
fill: #B6C62A;
}

.st3 {
fill: #009BD2;
}

.st4 {
fill: #FFEB00;
}

.st5 {
fill: #CB5D1E;
}

.st6 {
fill: #C00076;
}

.st7 {
fill: #1E2F70;
}

.st8 {
fill: #82AE36;
}
</style>
<g>
<animateTransform attributeName="transform" dur="60s" type="rotate" from="0 212 212" to="360 212 212" repeatCount="indefinite"></animateTransform>
<polygon class="st0" points="212.1,212.4 212.2,212.3 212.1,212.3 212.1,212.3 212.1,212.3 	"></polygon>
<polygon class="st1" points="212.1,212.2 212,212.3 212,212.3 	"></polygon>
<polygon class="st2" points="212.1,212.4 212.1,212.4 212.1,212.4 212.1,212.3 212.1,212.3 212.1,212.4 212.1,212.5 	"></polygon>
<path class="st3" d="M72.7,252.1c-21.9-77,22.7-157.2,99.7-179.2c2.5-0.7,4.9-1.3,7.4-1.9l-8.4-36.9l-6.2-27.4
C71.3,28.1,1.2,112.1,1.2,212.4c0,20.7,3,40.7,8.6,59.6l13-3.8l50.3-14.8C72.9,252.9,72.8,252.5,72.7,252.1z"></path>
<g>
<path class="st4" d="M345.9,156.4l35-14.6c-4.7-11.1-10.4-21.7-17.1-31.6l-31.4,21.2C337.6,139.1,342.2,147.4,345.9,156.4z"></path>
<path class="st4" d="M280.5,84.5l17.9-33.4c-25.7-13.8-55-21.6-86.2-21.6c-14,0-27.6,1.6-40.7,4.6l8.4,36.9
C215.1,63,250.6,68.5,280.5,84.5z"></path>
</g>
<path class="st5" d="M305.2,38.4l-6.8,12.7l-17.9,33.4c20.6,11,38.5,26.9,51.9,46.8l31.4-21.2l12-8.1
C357.8,75.5,333.5,53.6,305.2,38.4z"></path>
<path class="st6" d="M401.6,133.1l-20.7,8.7l-35,14.6c2.2,5.3,4.1,10.7,5.7,16.3c9.1,32.1,6.7,64.7-4.8,93.5l38.8,15.5l19.3,7.7
c8.8-23,13.7-47.9,13.7-74C418.6,186.1,412.5,158.3,401.6,133.1z"></path>
<path class="st0" d="M346.8,266.2c-6.2,15.4-15,29.8-26,42.3l32.5,26.4c4.2-4.8,8.1-9.9,11.8-15.2c8.5-12.1,15.2-24.8,20.5-38
L346.8,266.2z"></path>
<path class="st7" d="M353.3,334.8l-32.5-26.4c-17.7,20.1-41.2,35.5-69,43.4c-13.3,3.8-26.7,5.6-39.8,5.6v53.2v12.6c0,0,0.1,0,0.1,0
c63.9,0,121.2-28.4,159.8-73.3L353.3,334.8z"></path>
<path class="st8" d="M114.1,319.2l-28.3,30.9l-7.6,8.3c35.3,32.4,82.3,52.1,133.9,52.2v-53.2C175.4,357.4,140.5,343.4,114.1,319.2z
"></path>
<path class="st2" d="M96.7,300.2l-33.4,25.4c6.6,8.7,14.1,16.9,22.4,24.5l28.3-30.9C107.8,313.5,102,307.1,96.7,300.2z"></path>
<path class="st1" d="M73.1,253.4l-50.3,14.8c6.9,23.2,17.9,44.7,32.4,63.7l8.2-6.2l33.4-25.4C86.3,286.6,78.2,270.8,73.1,253.4z"></path>
</g>
</svg>